<svg width="80" height="43" viewBox="0 0 80 43" fill="none" xmlns="http://www.w3.org/2000/svg">
<path d="M12.4644 12.8306H12.4617C10.2044 12.8306 8.37451 14.6177 8.37451 16.8223V16.8249C8.37451 19.0295 10.2044 20.8167 12.4617 20.8167H12.4644C14.7216 20.8167 16.5515 19.0295 16.5515 16.8249V16.8223C16.5515 14.6177 14.7216 12.8306 12.4644 12.8306Z" fill="#AFB1B8"/>
<path d="M42.632 11.5545C42.6256 8.49242 41.3775 5.55752 39.1608 3.39207C36.9442 1.22661 33.9395 0.00695286 30.8043 0V0C27.6682 0.00556265 24.6621 1.22461 22.4443 3.39022C20.2264 5.55582 18.9776 8.49151 18.9712 11.5545V28.4402C18.9712 28.4402 42.6293 25.8667 42.632 11.5571V11.5545Z" fill="#AFB1B8"/>
<path d="M0.0898438 33.9823C0.0955301 36.1129 0.964452 38.1547 2.50674 39.6615C4.04902 41.1683 6.13927 42.0177 8.32074 42.0239C10.5017 42.0177 12.5916 41.1687 14.1338 39.6625C15.676 38.1562 16.5452 36.1151 16.5516 33.9849V22.2356C16.5516 22.2356 0.0898438 24.0276 0.0898438 33.9823ZM8.32074 36.0874C7.89444 36.0874 7.47772 35.964 7.12327 35.7326C6.76882 35.5013 6.49256 35.1726 6.32942 34.7879C6.16628 34.4032 6.1236 33.98 6.20677 33.5716C6.28993 33.1632 6.49521 32.7881 6.79665 32.4937C7.09809 32.1993 7.48214 31.9988 7.90024 31.9176C8.31835 31.8364 8.75173 31.8781 9.14557 32.0374C9.53942 32.1967 9.87604 32.4665 10.1129 32.8127C10.3497 33.1589 10.4761 33.5659 10.4761 33.9823C10.4772 34.2594 10.4222 34.534 10.3144 34.7903C10.2065 35.0466 10.0479 35.2796 9.8477 35.476C9.64744 35.6723 9.40948 35.828 9.14744 35.9343C8.88541 36.0406 8.60447 36.0953 8.32074 36.0953V36.0874Z" fill="#AFB1B8"/>
<path d="M25.1299 34.7812H23.4424V36.5244H22.5635V32.2588H25.3408V32.9707H23.4424V34.0723H25.1299V34.7812ZM29.3545 34.4883C29.3545 34.9082 29.2803 35.2764 29.1318 35.5928C28.9834 35.9092 28.7705 36.1533 28.4932 36.3252C28.2178 36.4971 27.9014 36.583 27.5439 36.583C27.1904 36.583 26.875 36.498 26.5977 36.3281C26.3203 36.1582 26.1055 35.916 25.9531 35.6016C25.8008 35.2852 25.7236 34.9219 25.7217 34.5117V34.3008C25.7217 33.8809 25.7969 33.5117 25.9473 33.1934C26.0996 32.873 26.3135 32.6279 26.5889 32.458C26.8662 32.2861 27.1826 32.2002 27.5381 32.2002C27.8936 32.2002 28.209 32.2861 28.4844 32.458C28.7617 32.6279 28.9756 32.873 29.126 33.1934C29.2783 33.5117 29.3545 33.8799 29.3545 34.2979V34.4883ZM28.4639 34.2949C28.4639 33.8477 28.3838 33.5078 28.2236 33.2754C28.0635 33.043 27.835 32.9268 27.5381 32.9268C27.2432 32.9268 27.0156 33.042 26.8555 33.2725C26.6953 33.501 26.6143 33.8369 26.6123 34.2803V34.4883C26.6123 34.9238 26.6924 35.2617 26.8525 35.502C27.0127 35.7422 27.2432 35.8623 27.5439 35.8623C27.8389 35.8623 28.0654 35.7471 28.2236 35.5166C28.3818 35.2842 28.4619 34.9463 28.4639 34.5029V34.2949ZM32.2051 35.4053C32.2051 35.2393 32.1465 35.1123 32.0293 35.0244C31.9121 34.9346 31.7012 34.8408 31.3965 34.7432C31.0918 34.6436 30.8506 34.5459 30.6729 34.4502C30.1885 34.1885 29.9463 33.8359 29.9463 33.3926C29.9463 33.1621 30.0107 32.957 30.1396 32.7773C30.2705 32.5957 30.457 32.4541 30.6992 32.3525C30.9434 32.251 31.2168 32.2002 31.5195 32.2002C31.8242 32.2002 32.0957 32.2559 32.334 32.3672C32.5723 32.4766 32.7568 32.6318 32.8877 32.833C33.0205 33.0342 33.0869 33.2627 33.0869 33.5186H32.208C32.208 33.3232 32.1465 33.1719 32.0234 33.0645C31.9004 32.9551 31.7275 32.9004 31.5049 32.9004C31.29 32.9004 31.123 32.9463 31.0039 33.0381C30.8848 33.1279 30.8252 33.2471 30.8252 33.3955C30.8252 33.5342 30.8945 33.6504 31.0332 33.7441C31.1738 33.8379 31.3799 33.9258 31.6514 34.0078C32.1514 34.1582 32.5156 34.3447 32.7441 34.5674C32.9727 34.79 33.0869 35.0674 33.0869 35.3994C33.0869 35.7686 32.9473 36.0586 32.668 36.2695C32.3887 36.4785 32.0127 36.583 31.54 36.583C31.2119 36.583 30.9131 36.5234 30.6436 36.4043C30.374 36.2832 30.168 36.1182 30.0254 35.9092C29.8848 35.7002 29.8145 35.458 29.8145 35.1826H30.6963C30.6963 35.6533 30.9775 35.8887 31.54 35.8887C31.749 35.8887 31.9121 35.8467 32.0293 35.7627C32.1465 35.6768 32.2051 35.5576 32.2051 35.4053ZM36.8955 32.9707H35.5889V36.5244H34.71V32.9707H33.4209V32.2588H36.8955V32.9707ZM39.9658 34.6758H38.2783V35.8184H40.2588V36.5244H37.3994V32.2588H40.2529V32.9707H38.2783V33.9873H39.9658V34.6758ZM42.3535 34.9629H41.6533V36.5244H40.7744V32.2588H42.3594C42.8633 32.2588 43.252 32.3711 43.5254 32.5957C43.7988 32.8203 43.9355 33.1377 43.9355 33.5479C43.9355 33.8389 43.8721 34.082 43.7451 34.2773C43.6201 34.4707 43.4297 34.625 43.1738 34.7402L44.0967 36.4834V36.5244H43.1533L42.3535 34.9629ZM41.6533 34.251H42.3623C42.583 34.251 42.7539 34.1953 42.875 34.084C42.9961 33.9707 43.0566 33.8154 43.0566 33.6182C43.0566 33.417 42.999 33.2588 42.8838 33.1436C42.7705 33.0283 42.5957 32.9707 42.3594 32.9707H41.6533V34.251ZM46.9795 35.0215V36.5244H46.1006V32.2588H47.7646C48.085 32.2588 48.3662 32.3174 48.6084 32.4346C48.8525 32.5518 49.04 32.7188 49.1709 32.9355C49.3018 33.1504 49.3672 33.3955 49.3672 33.6709C49.3672 34.0889 49.2236 34.4189 48.9365 34.6611C48.6514 34.9014 48.2559 35.0215 47.75 35.0215H46.9795ZM46.9795 34.3096H47.7646C47.9971 34.3096 48.1738 34.2549 48.2949 34.1455C48.418 34.0361 48.4795 33.8799 48.4795 33.6768C48.4795 33.4678 48.418 33.2988 48.2949 33.1699C48.1719 33.041 48.002 32.9746 47.7852 32.9707H46.9795V34.3096ZM52.54 34.6758H50.8525V35.8184H52.833V36.5244H49.9736V32.2588H52.8271V32.9707H50.8525V33.9873H52.54V34.6758ZM56.6182 32.9707H55.3115V36.5244H54.4326V32.9707H53.1436V32.2588H56.6182V32.9707ZM59.6885 34.6758H58.001V35.8184H59.9814V36.5244H57.1221V32.2588H59.9756V32.9707H58.001V33.9873H59.6885V34.6758ZM62.0762 34.9629H61.376V36.5244H60.4971V32.2588H62.082C62.5859 32.2588 62.9746 32.3711 63.248 32.5957C63.5215 32.8203 63.6582 33.1377 63.6582 33.5479C63.6582 33.8389 63.5947 34.082 63.4678 34.2773C63.3428 34.4707 63.1523 34.625 62.8965 34.7402L63.8193 36.4834V36.5244H62.876L62.0762 34.9629ZM61.376 34.251H62.085C62.3057 34.251 62.4766 34.1953 62.5977 34.084C62.7188 33.9707 62.7793 33.8154 62.7793 33.6182C62.7793 33.417 62.7217 33.2588 62.6064 33.1436C62.4932 33.0283 62.3184 32.9707 62.082 32.9707H61.376V34.251ZM66.541 35.4053C66.541 35.2393 66.4824 35.1123 66.3652 35.0244C66.248 34.9346 66.0371 34.8408 65.7324 34.7432C65.4277 34.6436 65.1865 34.5459 65.0088 34.4502C64.5244 34.1885 64.2822 33.8359 64.2822 33.3926C64.2822 33.1621 64.3467 32.957 64.4756 32.7773C64.6064 32.5957 64.793 32.4541 65.0352 32.3525C65.2793 32.251 65.5527 32.2002 65.8555 32.2002C66.1602 32.2002 66.4316 32.2559 66.6699 32.3672C66.9082 32.4766 67.0928 32.6318 67.2236 32.833C67.3564 33.0342 67.4229 33.2627 67.4229 33.5186H66.5439C66.5439 33.3232 66.4824 33.1719 66.3594 33.0645C66.2363 32.9551 66.0635 32.9004 65.8408 32.9004C65.626 32.9004 65.459 32.9463 65.3398 33.0381C65.2207 33.1279 65.1611 33.2471 65.1611 33.3955C65.1611 33.5342 65.2305 33.6504 65.3691 33.7441C65.5098 33.8379 65.7158 33.9258 65.9873 34.0078C66.4873 34.1582 66.8516 34.3447 67.0801 34.5674C67.3086 34.79 67.4229 35.0674 67.4229 35.3994C67.4229 35.7686 67.2832 36.0586 67.0039 36.2695C66.7246 36.4785 66.3486 36.583 65.876 36.583C65.5479 36.583 65.249 36.5234 64.9795 36.4043C64.71 36.2832 64.5039 36.1182 64.3613 35.9092C64.2207 35.7002 64.1504 35.458 64.1504 35.1826H65.0322C65.0322 35.6533 65.3135 35.8887 65.876 35.8887C66.085 35.8887 66.248 35.8467 66.3652 35.7627C66.4824 35.6768 66.541 35.5576 66.541 35.4053Z" fill="#AFB1B8"/>
</svg>
