<svg width="89" height="46" viewBox="0 0 89 46" fill="none" xmlns="http://www.w3.org/2000/svg">
<path d="M44.851 21.3533C44.4339 20.7432 44.2344 20.022 44.2817 19.2962V16.3135C44.2817 15.3992 44.4704 14.7044 44.8478 14.2291C45.2251 13.7537 45.8732 13.517 46.7921 13.5191C47.6555 13.5191 48.2684 13.7213 48.6308 14.1259C49.0262 14.6421 49.2185 15.2733 49.1745 15.91V16.6109H47.6299V15.9009C47.6354 15.6685 47.6204 15.4361 47.5851 15.2061C47.5629 15.0488 47.4852 14.9033 47.3645 14.7934C47.2059 14.675 47.0061 14.6175 46.8049 14.6326C46.5933 14.6176 46.3834 14.6782 46.2165 14.8025C46.0819 14.9243 45.9922 15.0838 45.9606 15.2576C45.9163 15.5011 45.896 15.7479 45.8999 15.995V19.6147C45.8755 19.964 45.9437 20.3134 46.0981 20.6312C46.175 20.7387 46.2816 20.824 46.4064 20.8775C46.5311 20.9311 46.669 20.9508 46.8049 20.9346C47.0027 20.9501 47.1991 20.8912 47.3517 20.7708C47.4776 20.6523 47.5585 20.4976 47.5819 20.3308C47.618 20.0907 47.6341 19.8482 47.6299 19.6056V18.8714H49.1745V19.5419C49.2178 20.2056 49.0302 20.8644 48.6404 21.4171C48.2855 21.86 47.6811 22.0815 46.7921 22.0815C45.9031 22.0815 45.2315 21.8449 44.851 21.3533Z" fill="#AFB1B8"/>
<path d="M51.282 21.3837C50.8918 20.9194 50.6968 20.2428 50.6968 19.3477V16.2104C50.6968 15.3244 50.8918 14.6538 51.282 14.1987C51.6721 13.7436 52.3245 13.517 53.239 13.5191C54.1472 13.5191 54.7964 13.7456 55.1865 14.1987C55.5766 14.6538 55.7749 15.3244 55.7749 16.2104V19.3477C55.7749 20.2337 55.5766 20.9134 55.1801 21.3806C54.7836 21.8479 54.1376 22.0815 53.239 22.0815C52.3405 22.0815 51.6753 21.8449 51.282 21.3837ZM53.9585 20.6312C54.0983 20.3404 54.1619 20.0219 54.144 19.7027V15.8615C54.1619 15.5485 54.0994 15.2361 53.9617 14.9512C53.8834 14.8414 53.7741 14.7547 53.6463 14.7011C53.5185 14.6474 53.3774 14.629 53.239 14.6478C53.1003 14.6294 52.9589 14.6481 52.8307 14.7017C52.7025 14.7553 52.5925 14.8417 52.5131 14.9512C52.3725 15.2353 52.3088 15.5481 52.3277 15.8615V19.7209C52.3082 20.0402 52.3719 20.3591 52.5131 20.6494C52.6032 20.7473 52.7143 20.8257 52.8389 20.8795C52.9636 20.9332 53.0989 20.961 53.2358 20.961C53.3728 20.961 53.5081 20.9332 53.6328 20.8795C53.7574 20.8257 53.8685 20.7473 53.9585 20.6494V20.6312Z" fill="#AFB1B8"/>
<path d="M57.6327 13.6106H59.2956L60.546 19.3992L61.8251 13.6106H63.4432L63.6063 21.9658H62.4103L62.2824 16.159L61.048 21.9658H60.0887L58.8095 16.1378L58.6912 21.9658H57.4824L57.6327 13.6106Z" fill="#AFB1B8"/>
<path d="M65.4705 13.6106H68.0608C69.5531 13.6106 70.2993 14.4014 70.2993 15.9831C70.2993 17.498 69.5137 18.2544 67.9425 18.2524H67.0599V21.9658H65.4609L65.4705 13.6106ZM67.6835 17.1814C67.8414 17.2005 68.0019 17.1867 68.1537 17.1411C68.3056 17.0956 68.4452 17.0193 68.5629 16.9175C68.7462 16.6353 68.8271 16.3039 68.7931 15.974C68.8015 15.7191 68.7757 15.4642 68.7164 15.2155C68.6936 15.1324 68.6535 15.0545 68.5986 14.9863C68.5437 14.918 68.475 14.8608 68.3966 14.8181C68.1746 14.7171 67.9292 14.6711 67.6835 14.6846H67.0631V17.1814H67.6835Z" fill="#AFB1B8"/>
<path d="M72.6047 13.6106H74.3219L76.0839 21.9658H74.5937L74.2452 20.0393H72.7134L72.3553 21.9658H70.8428L72.6047 13.6106ZM74.0725 19.0715L73.4745 15.5644L72.8765 19.0715H74.0725Z" fill="#AFB1B8"/>
<path d="M77.5071 13.6106H78.6263L80.7689 18.3768V13.6106H82.0959V21.9658H81.0311L78.8758 16.9903V21.9658H77.5039L77.5071 13.6106Z" fill="#AFB1B8"/>
<path d="M85.204 18.7801L83.4229 13.6223H84.9226L86.0099 16.9354L87.03 13.6223H88.4978L86.739 18.7801V21.9658H85.204V18.7801Z" fill="#AFB1B8"/>
<path d="M47.3199 25.6189V26.0558H46.0152V29.4509H45.4684V26.0558H44.1572V25.6189H47.3199Z" fill="#AFB1B8"/>
<path d="M51.4097 29.4512H50.9876C50.9447 29.4537 50.9024 29.4407 50.8692 29.4148C50.8373 29.3925 50.8129 29.362 50.7989 29.3268L50.4215 28.4166H48.6116L48.2342 29.3268C48.2235 29.3649 48.2038 29.4001 48.1767 29.43C48.1432 29.4554 48.1011 29.4683 48.0583 29.4664H47.6362L49.2351 25.6345H49.7916L51.4097 29.4512ZM48.7619 28.0283H50.2712L49.6317 26.4688C49.5845 26.3509 49.545 26.2303 49.5134 26.1078C49.491 26.1806 49.4718 26.2504 49.4526 26.3111L49.395 26.4719L48.7619 28.0283Z" fill="#AFB1B8"/>
<path d="M54.1663 29.0748C54.2664 29.0798 54.3667 29.0798 54.4668 29.0748C54.5533 29.0664 54.6389 29.0512 54.7227 29.0293C54.801 29.0111 54.8779 28.9878 54.9529 28.9595C55.0233 28.9322 55.0936 28.8988 55.1672 28.8655V28.0037H54.5276C54.5118 28.0046 54.496 28.0023 54.4811 27.9971C54.4662 27.9919 54.4527 27.9838 54.4413 27.9734C54.4308 27.9648 54.4225 27.954 54.4169 27.9419C54.4114 27.9299 54.4088 27.9167 54.4093 27.9036V27.6093H55.65V29.0779C55.5488 29.1466 55.4418 29.2075 55.3302 29.2599C55.2162 29.3133 55.0974 29.357 54.9753 29.3904C54.8445 29.4269 54.7108 29.4533 54.5756 29.4693C54.4205 29.4856 54.2647 29.4937 54.1087 29.4936C53.8329 29.4958 53.5593 29.4473 53.3029 29.351C53.0635 29.2596 52.8459 29.1234 52.6633 28.9504C52.4853 28.7757 52.3451 28.5695 52.2508 28.3436C52.15 28.0896 52.1001 27.8199 52.1037 27.5486C52.1003 27.2755 52.1491 27.0041 52.2476 26.7475C52.3396 26.5204 52.48 26.3138 52.6601 26.1406C52.8426 25.9682 53.0602 25.833 53.2997 25.7431C53.5735 25.6454 53.8641 25.597 54.1567 25.6005C54.3055 25.6003 54.4542 25.6115 54.6012 25.6339C54.7311 25.654 54.8586 25.6865 54.9817 25.731C55.0936 25.7709 55.2007 25.8217 55.3015 25.8827C55.3995 25.9426 55.4925 26.0095 55.5797 26.083L55.4262 26.3197C55.4142 26.3413 55.3963 26.3594 55.3743 26.3722C55.3524 26.3851 55.3272 26.392 55.3015 26.3925C55.2661 26.3914 55.2317 26.3809 55.2023 26.3621C55.1544 26.3379 55.1032 26.3075 55.0456 26.2711C54.9777 26.2307 54.9059 26.1961 54.8314 26.1679C54.7361 26.1317 54.6377 26.1032 54.5372 26.083C54.4033 26.0596 54.2673 26.0484 54.1311 26.0496C53.9201 26.0474 53.7106 26.0834 53.5139 26.1558C53.336 26.2235 53.1756 26.3271 53.0438 26.4592C52.9113 26.597 52.8101 26.7592 52.7464 26.9356C52.6036 27.3507 52.6036 27.7981 52.7464 28.2131C52.8164 28.3933 52.9254 28.5576 53.0662 28.6955C53.1974 28.827 53.3565 28.9304 53.5331 28.999C53.7364 29.0652 53.952 29.091 54.1663 29.0748Z" fill="#AFB1B8"/>
<path d="M59.2638 29.014H61.0106V29.4509H58.7295V25.6189H59.2766L59.2638 29.014Z" fill="#AFB1B8"/>
<path d="M62.8263 29.4509H62.2793V25.6189H62.8263V29.4509Z" fill="#AFB1B8"/>
<path d="M64.8595 25.6371C64.892 25.6547 64.9203 25.6785 64.9426 25.7069L67.2802 28.5955C67.2771 28.5501 67.2771 28.5045 67.2802 28.459C67.2802 28.4165 67.2802 28.374 67.2802 28.3346V25.6038H67.7567V29.4512H67.4817C67.441 29.4543 67.4001 29.447 67.3634 29.43C67.3302 29.4109 67.3009 29.3862 67.277 29.3571L64.9426 26.4716C64.9426 26.5171 64.9426 26.5595 64.9426 26.602C64.9426 26.6445 64.9426 26.684 64.9426 26.7204V29.4512H64.4854V25.6189H64.77C64.8008 25.619 64.8313 25.6252 64.8595 25.6371Z" fill="#AFB1B8"/>
<path d="M71.7828 25.6189V26.0406H69.845V27.3059H71.4151V27.7124H69.845V29.0202H71.7828V29.4419H69.2822V25.6189H71.7828Z" fill="#AFB1B8"/>
<path d="M14.4817 1.95391L38.7626 8.49527V31.4173L14.4817 24.879V1.95391ZM12.9243 0V25.9925L40.3168 33.3743V7.38482L12.9243 0Z" fill="#AFB1B8"/>
<path d="M27.6055 45.4402L0.209961 38.0522V12.0625L27.6055 19.4474V45.4402Z" fill="#AFB1B8"/>
<path d="M13.3785 1.65958L37.3428 8.11891L27.1514 17.7912L3.18392 11.3288L13.3785 1.65958ZM12.9244 0L0.209961 12.0631L27.6055 19.4478L40.3168 7.38469L12.9244 0Z" fill="#AFB1B8"/>
<path d="M29.147 43.978L40.3168 33.3774L29.147 30.3647V43.978Z" fill="#AFB1B8"/>
</svg>
