<svg width="45" height="50" viewBox="0 0 45 50" fill="none" xmlns="http://www.w3.org/2000/svg">
<path d="M6.36914 0L13.6605 6.91796H34V26.2158L41.2914 33.1338V0H6.36914Z" fill="#AFB1B8"/>
<path d="M0.382324 6.62646V38.8137H34.3068V26.0195L13.8754 6.63443L0.382324 6.62646ZM27.8443 34.1055H5.75046V12.4579H7.3122V32.6397H27.8443V34.1055Z" fill="#AFB1B8"/>
<path d="M10.1548 44.7837L10.9727 43.0991H11.6562L10.4648 45.3452V46.6538H9.84473V45.3452L8.65088 43.0991H9.33691L10.1548 44.7837ZM13.6655 45.8262H12.2886L12.0005 46.6538H11.3584L12.7012 43.0991H13.2554L14.6006 46.6538H13.9561L13.6655 45.8262ZM12.4619 45.3281H13.4922L12.9771 43.8535L12.4619 45.3281ZM16.0996 45.6943C16.0996 45.5299 16.1444 45.3794 16.2339 45.2427C16.3234 45.1043 16.5 44.9408 16.7637 44.752C16.6253 44.5778 16.5285 44.4297 16.4731 44.3076C16.4194 44.1855 16.3926 44.0675 16.3926 43.9536C16.3926 43.6753 16.4772 43.4556 16.6465 43.2944C16.8158 43.1317 17.0436 43.0503 17.3301 43.0503C17.5889 43.0503 17.8005 43.1268 17.9648 43.2798C18.1309 43.4312 18.2139 43.6191 18.2139 43.8438C18.2139 43.9919 18.1764 44.1286 18.1016 44.2539C18.0267 44.3776 17.9038 44.5013 17.7329 44.625L17.4912 44.8008L18.1772 45.6113C18.2765 45.416 18.3262 45.1987 18.3262 44.9595H18.8413C18.8413 45.3973 18.7388 45.7562 18.5337 46.0361L19.0562 46.6538H18.3677L18.1675 46.417C17.9136 46.6074 17.6108 46.7026 17.2593 46.7026C16.9077 46.7026 16.6261 46.6099 16.4146 46.4243C16.2046 46.2371 16.0996 45.9938 16.0996 45.6943ZM17.2764 46.229C17.4766 46.229 17.6637 46.1623 17.8379 46.0288L17.0615 45.1133L16.9858 45.167C16.7905 45.3151 16.6929 45.4844 16.6929 45.6748C16.6929 45.8392 16.7458 45.9727 16.8516 46.0752C16.9574 46.1777 17.099 46.229 17.2764 46.229ZM16.9492 43.939C16.9492 44.0757 17.033 44.2474 17.2007 44.4541L17.4717 44.2686L17.5474 44.2075C17.6483 44.118 17.6987 44.0033 17.6987 43.8633C17.6987 43.7705 17.6637 43.6916 17.5938 43.6265C17.5238 43.5597 17.4351 43.5264 17.3276 43.5264C17.2121 43.5264 17.1201 43.5654 17.0518 43.6436C16.9834 43.7217 16.9492 43.8201 16.9492 43.939ZM23.4067 45.4966C23.3709 45.8758 23.231 46.172 22.9868 46.3853C22.7427 46.5968 22.418 46.7026 22.0127 46.7026C21.7295 46.7026 21.4797 46.6359 21.2632 46.5024C21.0483 46.3674 20.8823 46.1761 20.7651 45.9287C20.6479 45.6813 20.5869 45.394 20.582 45.0669V44.7349C20.582 44.3996 20.6414 44.1042 20.7603 43.8486C20.8791 43.5931 21.0492 43.3962 21.2705 43.2578C21.4935 43.1195 21.7507 43.0503 22.042 43.0503C22.4342 43.0503 22.75 43.1569 22.9893 43.3701C23.2285 43.5833 23.3677 43.8844 23.4067 44.2734H22.7915C22.7622 44.0179 22.6873 43.834 22.5669 43.7217C22.4481 43.6077 22.2731 43.5508 22.042 43.5508C21.7734 43.5508 21.5667 43.6493 21.4219 43.8462C21.2786 44.0415 21.2054 44.3288 21.2021 44.708V45.0229C21.2021 45.4071 21.2705 45.7 21.4072 45.9019C21.5456 46.1037 21.7474 46.2046 22.0127 46.2046C22.2552 46.2046 22.4375 46.1501 22.5596 46.041C22.6816 45.932 22.759 45.7505 22.7915 45.4966H23.4067ZM26.7979 44.9692C26.7979 45.3175 26.7376 45.6235 26.6172 45.8872C26.4967 46.1493 26.3242 46.3511 26.0996 46.4927C25.8766 46.6326 25.6195 46.7026 25.3281 46.7026C25.04 46.7026 24.7829 46.6326 24.5566 46.4927C24.332 46.3511 24.1579 46.1501 24.0342 45.8896C23.9121 45.6292 23.8503 45.3289 23.8486 44.9888V44.7886C23.8486 44.4419 23.9097 44.1359 24.0317 43.8706C24.1554 43.6053 24.3288 43.4027 24.5518 43.2627C24.7764 43.1211 25.0335 43.0503 25.3232 43.0503C25.613 43.0503 25.8693 43.1203 26.0923 43.2603C26.3169 43.3986 26.4902 43.5988 26.6123 43.8608C26.7344 44.1213 26.7962 44.4248 26.7979 44.7715V44.9692ZM26.1802 44.7837C26.1802 44.3898 26.1053 44.0879 25.9556 43.8779C25.8075 43.668 25.5967 43.563 25.3232 43.563C25.0563 43.563 24.8472 43.668 24.6958 43.8779C24.5461 44.0863 24.4696 44.3817 24.4663 44.7642V44.9692C24.4663 45.3599 24.542 45.6618 24.6934 45.875C24.8464 46.0882 25.0579 46.1948 25.3281 46.1948C25.6016 46.1948 25.8115 46.0907 25.958 45.8823C26.1061 45.674 26.1802 45.3696 26.1802 44.9692V44.7837Z" fill="#AFB1B8"/>
</svg>
