<svg width="42" height="43" viewBox="0 0 42 43" fill="none" xmlns="http://www.w3.org/2000/svg">
<path d="M6.82102 41.7946C6.836 41.795 6.85075 41.7982 6.86441 41.8041C6.87807 41.81 6.89037 41.8184 6.90058 41.8289L7.1059 42.0446C6.94653 42.2191 6.74955 42.3588 6.52844 42.4539C6.26952 42.5577 5.99047 42.6078 5.70974 42.6009C5.44596 42.6061 5.18387 42.5594 4.93981 42.4637C4.71965 42.3758 4.52185 42.2437 4.35979 42.0764C4.19439 41.9029 4.06699 41.6996 3.98509 41.4784C3.89539 41.2318 3.8511 40.9723 3.8542 40.7113C3.85056 40.4486 3.89843 40.1875 3.99535 39.9417C4.08501 39.7191 4.22025 39.5158 4.39315 39.3436C4.5684 39.1749 4.77804 39.0423 5.0091 38.9539C5.26188 38.8604 5.53105 38.8138 5.80214 38.8167C6.05395 38.8108 6.30442 38.8534 6.53871 38.9417C6.74198 39.0259 6.92861 39.1428 7.0905 39.2873L6.91854 39.5177C6.90667 39.5339 6.8919 39.548 6.87491 39.5593C6.85463 39.5726 6.83011 39.5787 6.80562 39.5765C6.77898 39.5747 6.75331 39.5663 6.73119 39.552L6.6388 39.4907L6.51048 39.4123C6.45508 39.3832 6.39763 39.3578 6.33853 39.3363C6.26241 39.3103 6.18433 39.2898 6.10498 39.275C6.00426 39.2573 5.90197 39.2491 5.79957 39.2505C5.60436 39.2482 5.41064 39.2832 5.22982 39.3534C5.06118 39.4185 4.90896 39.5171 4.78325 39.6427C4.65528 39.7762 4.55666 39.9329 4.49324 40.1034C4.42096 40.2985 4.38534 40.5043 4.38802 40.7113C4.38494 40.9214 4.42055 41.1305 4.49324 41.3289C4.55587 41.498 4.65266 41.6537 4.77812 41.7872C4.89567 41.9117 5.04137 42.0089 5.20415 42.0715C5.37168 42.1379 5.5515 42.1712 5.73284 42.1696C5.83759 42.1711 5.9423 42.1646 6.04595 42.15C6.21519 42.1302 6.37753 42.0741 6.52074 41.9858C6.59258 41.9405 6.66039 41.8897 6.72349 41.8338C6.74988 41.8098 6.78458 41.7958 6.82102 41.7946Z" fill="#AFB1B8"/>
<path d="M12.7493 40.7108C12.7525 40.9709 12.7056 41.2292 12.6107 41.473C12.5271 41.6941 12.3954 41.8958 12.2242 42.0648C12.053 42.2338 11.8462 42.3662 11.6175 42.4533C11.1151 42.6363 10.5596 42.6363 10.0572 42.4533C9.82995 42.3648 9.62455 42.2321 9.45405 42.0636C9.28296 41.8916 9.15025 41.6882 9.06395 41.4657C8.87907 40.972 8.87907 40.4325 9.06395 39.9388C9.1515 39.7162 9.28405 39.5122 9.45405 39.3384C9.62599 39.1752 9.83129 39.0476 10.0572 38.9635C10.559 38.7772 11.1157 38.7772 11.6175 38.9635C11.8455 39.0519 12.0518 39.1846 12.2232 39.3531C12.3922 39.5235 12.5239 39.7243 12.6107 39.9437C12.7058 40.1892 12.7528 40.4492 12.7493 40.7108ZM12.2104 40.7108C12.2144 40.5028 12.1814 40.2956 12.1129 40.0981C12.0553 39.929 11.9619 39.7729 11.8383 39.6399C11.7179 39.5139 11.5698 39.4152 11.4045 39.3507C11.0394 39.2167 10.6353 39.2167 10.2702 39.3507C10.1049 39.4152 9.95677 39.5139 9.83644 39.6399C9.71111 39.7722 9.61663 39.9284 9.55927 40.0981C9.42869 40.4971 9.42869 40.9246 9.55927 41.3235C9.6172 41.4931 9.71161 41.6492 9.83644 41.7818C9.95692 41.907 10.1051 42.0049 10.2702 42.0685C10.6359 42.1991 11.0388 42.1991 11.4045 42.0685C11.5696 42.0049 11.7178 41.907 11.8383 41.7818C11.9613 41.6484 12.0547 41.4925 12.1129 41.3235C12.1817 41.1261 12.2147 40.9189 12.2104 40.7108Z" fill="#AFB1B8"/>
<path d="M16.7944 41.3532L16.8483 41.4904C16.8688 41.4414 16.8868 41.3973 16.9073 41.3532C16.9269 41.3071 16.9492 41.2621 16.974 41.2184L18.2855 38.942C18.3111 38.9028 18.3342 38.8783 18.3599 38.8709C18.3948 38.8608 18.4313 38.8566 18.4677 38.8587H18.8552V42.5613H18.3958V39.8388C18.3958 39.8045 18.3958 39.7653 18.3958 39.7237C18.3934 39.6812 18.3934 39.6387 18.3958 39.5962L17.0767 41.9046C17.0599 41.9391 17.0331 41.9684 16.9995 41.9888C16.9658 42.0092 16.9267 42.02 16.8868 42.0197H16.8123C16.7724 42.0203 16.7331 42.0097 16.6994 41.9892C16.6657 41.9687 16.6389 41.9393 16.6224 41.9046L15.2648 39.5815C15.2648 39.6256 15.2648 39.6698 15.2648 39.7139C15.2648 39.758 15.2648 39.7972 15.2648 39.8315V42.5539H14.8208V38.8587H15.2083C15.2447 38.8566 15.2812 38.8608 15.3161 38.8709C15.3479 38.886 15.3733 38.9111 15.388 38.942L16.7277 41.2209C16.754 41.263 16.7763 41.3073 16.7944 41.3532Z" fill="#AFB1B8"/>
<path d="M21.7296 41.1692V42.5562H21.2163V38.8585H22.3609C22.577 38.8546 22.7924 38.8818 22.9999 38.9394C23.1661 38.9843 23.3201 39.0629 23.4516 39.1697C23.5656 39.2699 23.6535 39.394 23.7083 39.5324C23.7688 39.6832 23.7985 39.8438 23.7955 40.0053C23.7978 40.1675 23.7655 40.3284 23.7006 40.4782C23.6389 40.6201 23.5441 40.7466 23.4234 40.8482C23.2917 40.9595 23.1369 41.043 22.9691 41.0933C22.7693 41.1542 22.5604 41.1832 22.3506 41.179L21.7296 41.1692ZM21.7296 40.7723H22.3506C22.4855 40.7739 22.6199 40.7549 22.7484 40.7159C22.8545 40.6818 22.9523 40.6277 23.0359 40.5566C23.113 40.4888 23.1727 40.405 23.2104 40.3116C23.2524 40.2128 23.2733 40.107 23.272 40.0004C23.2779 39.8976 23.2604 39.7948 23.2205 39.6992C23.1806 39.6035 23.1193 39.5174 23.041 39.4466C22.8449 39.3004 22.5987 39.2296 22.3506 39.2481H21.7296V40.7723Z" fill="#AFB1B8"/>
<path d="M28.6282 42.5612H28.2227C28.182 42.5626 28.1421 42.5505 28.1098 42.5268C28.0806 42.5038 28.0578 42.4744 28.043 42.4411L27.694 41.5466H25.9411L25.5793 42.4411C25.566 42.4738 25.5438 42.5025 25.5151 42.5244C25.4825 42.5495 25.4415 42.5625 25.3996 42.5612H24.9941L26.534 38.8582H27.0678L28.6282 42.5612ZM26.0874 41.1863H27.5349L26.9241 39.6791C26.8774 39.5658 26.8388 39.4495 26.8086 39.3311L26.7496 39.5247C26.7316 39.5836 26.7111 39.6375 26.6931 39.6816L26.0874 41.1863Z" fill="#AFB1B8"/>
<path d="M30.8454 38.8754C30.8761 38.8915 30.9024 38.9141 30.9224 38.9416L33.1679 41.7329C33.1679 41.6887 33.1679 41.6446 33.1679 41.603C33.1679 41.5613 33.1679 41.5197 33.1679 41.4804V38.8582H33.6273V42.5612H33.3707C33.3342 42.5622 33.2981 42.5547 33.2655 42.5391C33.2338 42.5215 33.2059 42.4982 33.1833 42.4705L30.9403 39.6817C30.9428 39.7241 30.9428 39.7666 30.9403 39.8091C30.9403 39.8508 30.9403 39.8875 30.9403 39.9218V42.5612H30.481V38.8582H30.753C30.7847 38.8574 30.8163 38.8632 30.8454 38.8754Z" fill="#AFB1B8"/>
<path d="M37.4106 41.0884V42.5588H36.8973V41.0884L35.478 38.8584H35.9374C35.977 38.8561 36.0161 38.8674 36.0478 38.8902C36.0757 38.914 36.0992 38.9422 36.1171 38.9735L37.0051 40.4121C37.041 40.4733 37.0718 40.5297 37.0975 40.5836C37.1231 40.6375 37.1437 40.689 37.1616 40.7405L37.2284 40.5812C37.2533 40.5229 37.2824 40.4664 37.3156 40.4121L38.1908 38.9637C38.2092 38.9348 38.2316 38.9084 38.2575 38.8853C38.2879 38.8599 38.3275 38.8467 38.3679 38.8486H38.8324L37.4106 41.0884Z" fill="#AFB1B8"/>
<path d="M16.54 32.6443C16.7633 32.6712 16.9892 32.6933 17.2176 32.7129C20.6805 31.2337 23.6099 28.8127 25.6398 25.7526C27.6697 22.6924 28.7099 19.1289 28.6305 15.5073L24.8142 11.8633C25.5901 15.7191 25.2272 19.705 23.7659 23.3751C22.3046 27.0452 19.8027 30.2546 16.54 32.6443Z" fill="#AFB1B8"/>
<path d="M15.1772 32.4748L15.2799 32.4944C18.7664 30.1132 21.4245 26.788 22.9105 22.9488C24.3966 19.1097 24.6422 14.9331 23.6156 10.9592L18.18 5.76904C20.3785 10.0353 21.2635 14.8098 20.732 19.5374C20.2004 24.265 18.2742 28.7514 15.1772 32.4748Z" fill="#AFB1B8"/>
<path d="M33.6119 19.7861C32.6884 23.7654 30.4456 27.3541 27.2164 30.0196C26.2733 30.8023 25.256 31.4996 24.1777 32.1025C26.8072 31.3646 29.2241 30.0598 31.242 28.289C33.2599 26.5181 34.825 24.3284 35.8165 21.8887L33.6119 19.7861Z" fill="#AFB1B8"/>
<path d="M32.7473 19.2002L29.6086 16.2031C29.5486 19.6201 28.5312 22.9594 26.6623 25.8739C24.7933 28.7885 22.141 31.1718 18.981 32.7764H18.9964C19.7006 32.7761 20.4041 32.736 21.1034 32.6563C24.0566 31.5053 26.6655 29.6742 28.6973 27.3262C30.729 24.9782 32.1204 22.1865 32.7473 19.2002Z" fill="#AFB1B8"/>
<path d="M15.6317 3.5803L11.8873 0C8.53989 1.23513 5.661 3.40643 3.62739 6.22973C1.59378 9.05304 0.500191 12.3968 0.489746 15.8234H0.489746C0.502292 19.6097 1.83694 23.2838 4.28246 26.2643C6.72797 29.2448 10.1447 31.3614 13.9917 32.2791C17.426 28.2838 19.4367 23.347 19.7316 18.186C20.0265 13.025 18.5903 7.90862 15.6317 3.5803Z" fill="#AFB1B8"/>
<path d="M41.3987 18.649C41.3852 14.1568 39.5103 9.85223 36.1836 6.67574C32.8569 3.49924 28.3488 1.70898 23.6442 1.69605C21.4702 1.6939 19.3147 2.07696 17.2871 2.82576L40.213 24.7166C40.9981 22.7815 41.4001 20.7241 41.3987 18.649Z" fill="#AFB1B8"/>
</svg>
