<svg width="11" height="15" viewBox="0 0 11 15" fill="none" xmlns="http://www.w3.org/2000/svg">
<path d="M8.72027 0H1.73591C0.910603 0 0.239258 0.628103 0.239258 1.40025V13.5357C0.239258 14.3079 0.910603 14.936 1.73591 14.936H8.72027C9.54557 14.936 10.2169 14.3079 10.2169 13.5357V1.40025C10.2169 0.628103 9.54557 0 8.72027 0ZM1.73591 0.933498H8.72027C8.99553 0.933498 9.21915 1.14271 9.21915 1.40025V11.202H1.23702V1.40025C1.23702 1.14271 1.46064 0.933498 1.73591 0.933498ZM8.72027 14.0025H1.73591C1.46064 14.0025 1.23702 13.7933 1.23702 13.5357V12.1355H9.21915V13.5357C9.21915 13.7933 8.99553 14.0025 8.72027 14.0025Z" fill="#757575"/>
<path d="M2.58783 12.7389C2.78274 12.9213 2.78274 13.2169 2.58783 13.3992C2.39292 13.5816 2.07693 13.5816 1.88202 13.3992C1.68711 13.2169 1.68711 12.9213 1.88202 12.7389C2.07693 12.5566 2.39292 12.5566 2.58783 12.7389Z" fill="#757575"/>
</svg>
